<svg width="48" height="48" viewBox="0 0 48 48" fill="none" xmlns="http://www.w3.org/2000/svg">
  <rect width="48" height="48" rx="12" fill="#E9F7EF"/>
  <path d="M31 10V28.5C31 32 28.1 34 25.1 34C22.5 34 20.5 32.5 20.5 30.4C20.5 27.9 22.9 26.2 25.8 26.2C26.7 26.2 27.5 26.4 28 26.7V16.5L18 18.7V32.5C18 36 15.1 38 12.1 38C9.5 38 7.5 36.5 7.5 34.4C7.5 31.9 9.9 30.2 12.8 30.2C13.7 30.2 14.5 30.4 15 30.7V14.2L31 10Z" fill="#2E7D32"/>
  <path d="M33.5 16.5C37.6 18.7 40 22.6 40 27" stroke="#2E7D32" stroke-width="3" stroke-linecap="round"/>
  <path d="M35.5 10.5C41 13.3 44 18.7 44 25" stroke="#2E7D32" stroke-width="3" stroke-linecap="round" opacity="0.55"/>
</svg>
